# Blender 5.0.1
# www.blender.org
mtllib body.mtl
o Cube
v -0.674426 -0.258767 -0.458479
v -0.530104 1.187838 -0.530104
v 0.674426 -0.258767 -0.458479
v 0.530104 1.187838 -0.530104
v -0.674426 -0.258767 0.890373
v -0.530104 1.187838 0.530104
v 0.674426 -0.258767 0.890373
v 0.530104 1.187838 0.530104
v -0.492043 -2.212821 -0.345622
v 0.492043 -2.212821 -0.345622
v -0.492043 -2.212821 0.320810
v 0.492043 -2.212821 0.320810
v -1.000000 1.000000 -1.000000
v 1.000000 1.000000 -1.000000
v 1.000000 1.000000 1.000000
v -1.000000 1.000000 1.000000
v -0.305842 1.475850 -0.305842
v 0.305842 1.475850 -0.305842
v -0.305842 1.475850 0.305842
v 0.305842 1.475850 0.305842
v -0.643505 1.803688 -0.643505
v 0.643505 1.803688 -0.643505
v -0.643505 1.803688 0.643505
v 0.643505 1.803688 0.643505
v -0.559687 2.570723 -0.559687
v 0.559687 2.570723 -0.559687
v -0.559687 2.570723 0.559687
v 0.559687 2.570723 0.559687
vn -0.0000 -0.3952 -0.9186
vn 0.9681 -0.2504 -0.0000
vn -0.0000 -0.0868 0.9962
vn -0.9681 -0.2504 -0.0000
vn 0.9957 -0.0929 -0.0000
vn -0.7890 0.6144 -0.0000
vn -0.0000 -1.0000 -0.0000
vn -0.0000 -0.0577 -0.9983
vn -0.0000 -0.2798 0.9600
vn -0.9957 -0.0929 -0.0000
vn -0.0000 0.9286 -0.3712
vn 0.3712 0.9286 -0.0000
vn -0.0000 0.9286 0.3712
vn -0.3712 0.9286 -0.0000
vn 0.6966 -0.7175 -0.0000
vn 0.7890 0.6144 -0.0000
vn -0.0000 0.6144 0.7890
vn -0.0000 0.6144 -0.7890
vn -0.0000 0.1086 0.9941
vn -0.0000 -0.7175 0.6966
vn -0.0000 -0.7175 -0.6966
vn -0.6966 -0.7175 -0.0000
vn -0.0000 1.0000 -0.0000
vn -0.0000 0.1086 -0.9941
vn -0.9941 0.1086 -0.0000
vn 0.9941 0.1086 -0.0000
vt 0.625000 0.000000
vt 0.375000 0.250000
vt 0.375000 0.000000
vt 0.625000 0.500000
vt 0.375000 0.500000
vt 0.375000 0.750000
vt 0.625000 0.750000
vt 0.375000 1.000000
vt 0.683737 0.691263
vt 0.816263 0.691263
vt 0.125000 0.750000
vt 0.125000 0.500000
vt 0.816263 0.558737
vt 0.875000 0.750000
vt 0.683737 0.558737
vt 0.875000 0.500000
vt 0.625000 0.250000
vt 0.625000 1.000000
s 0
usemtl Material.001
f 13/1/1 3/2/1 1/3/1
f 3/2/2 15/4/2 7/5/2
f 15/4/3 5/6/3 7/5/3
f 16/7/4 1/8/4 5/6/4
f 3/2/5 12/5/5 10/2/5
f 6/9/6 17/10/6 2/10/6
f 12/5/7 9/11/7 10/12/7
f 3/2/8 9/3/8 1/3/8
f 5/6/9 12/5/9 7/5/9
f 1/8/10 11/6/10 5/6/10
f 4/13/11 13/14/11 2/10/11
f 8/15/12 14/16/12 4/13/12
f 6/9/13 15/4/13 8/15/13
f 2/10/14 16/7/14 6/9/14
f 18/13/15 24/15/15 20/15/15
f 4/13/16 20/15/16 8/15/16
f 8/15/17 19/9/17 6/9/17
f 2/10/18 18/13/18 4/13/18
f 24/15/19 27/9/19 23/9/19
f 20/15/20 23/9/20 19/9/20
f 17/10/21 22/13/21 18/13/21
f 19/9/22 21/10/22 17/10/22
f 26/13/23 27/9/23 28/15/23
f 21/10/24 26/13/24 22/13/24
f 23/9/25 25/10/25 21/10/25
f 22/13/26 28/15/26 24/15/26
f 13/1/1 14/17/1 3/2/1
f 3/2/2 14/17/2 15/4/2
f 15/4/3 16/7/3 5/6/3
f 16/7/4 13/18/4 1/8/4
f 3/2/5 7/5/5 12/5/5
f 6/9/6 19/9/6 17/10/6
f 12/5/7 11/6/7 9/11/7
f 3/2/8 10/2/8 9/3/8
f 5/6/9 11/6/9 12/5/9
f 1/8/10 9/8/10 11/6/10
f 4/13/11 14/16/11 13/14/11
f 8/15/12 15/4/12 14/16/12
f 6/9/13 16/7/13 15/4/13
f 2/10/14 13/14/14 16/7/14
f 18/13/15 22/13/15 24/15/15
f 4/13/16 18/13/16 20/15/16
f 8/15/17 20/15/17 19/9/17
f 2/10/18 17/10/18 18/13/18
f 24/15/19 28/15/19 27/9/19
f 20/15/20 24/15/20 23/9/20
f 17/10/21 21/10/21 22/13/21
f 19/9/22 23/9/22 21/10/22
f 26/13/23 25/10/23 27/9/23
f 21/10/24 25/10/24 26/13/24
f 23/9/25 27/9/25 25/10/25
f 22/13/26 26/13/26 28/15/26
o Cube.001
v -1.409112 -0.221672 -0.024191
v -0.830328 0.888375 -0.325471
v -1.116729 -0.368080 -0.019110
v -0.286189 0.379109 -0.332308
v -1.398489 -0.189169 0.301048
v -0.805663 0.904731 0.419251
v -1.106105 -0.335578 0.306128
v -0.261524 0.395465 0.412414
v -1.626712 -1.567810 0.222912
v -1.475169 -1.597083 0.214401
v -1.618439 -1.569854 0.377255
v -1.466896 -1.599127 0.368745
v 1.409112 -0.221672 -0.024191
v 0.830328 0.888375 -0.325471
v 1.116729 -0.368080 -0.019110
v 0.286189 0.379109 -0.332308
v 1.398489 -0.189169 0.301048
v 0.805663 0.904731 0.419251
v 1.106105 -0.335578 0.306129
v 0.261524 0.395465 0.412414
v 1.626712 -1.567810 0.222912
v 1.475169 -1.597083 0.214401
v 1.618439 -1.569854 0.377256
v 1.466896 -1.599127 0.368745
vn -0.0914 -0.2162 -0.9721
vn 0.6495 -0.7584 0.0546
vn -0.0560 -0.0772 0.9954
vn -0.8782 0.4780 -0.0191
vn 0.0621 0.0317 0.9976
vn 0.6826 0.7298 -0.0386
vn -0.1898 -0.9818 -0.0028
vn -0.9856 0.1600 0.0549
vn 0.9598 -0.2806 -0.0033
vn -0.0678 -0.1695 -0.9832
vn 0.0914 -0.2162 -0.9721
vn -0.6676 -0.7445 -0.0058
vn 0.0591 -0.0765 0.9953
vn 0.8782 0.4780 -0.0191
vn -0.0095 0.0536 0.9985
vn -0.6826 0.7298 -0.0386
vn 0.1898 -0.9818 -0.0028
vn 0.9866 0.1624 0.0160
vn -0.9598 -0.2806 -0.0033
vn 0.0678 -0.1695 -0.9832
vn -0.1910 -0.1912 -0.9628
vn 0.6676 -0.7445 -0.0058
vn -0.0591 -0.0765 0.9953
vn -0.8844 0.4663 0.0191
vn 0.0095 0.0536 0.9985
vn -0.9866 0.1624 0.0160
vn 0.9594 -0.2767 -0.0551
vn -0.0864 -0.1616 -0.9831
vn 0.1910 -0.1912 -0.9628
vn -0.6495 -0.7584 0.0546
vn 0.0560 -0.0772 0.9954
vn 0.8844 0.4663 0.0191
vn -0.0621 0.0317 0.9976
vn 0.9856 0.1600 0.0549
vn -0.9594 -0.2767 -0.0551
vn 0.0864 -0.1616 -0.9831
vt 0.625000 0.000000
vt 0.375000 0.250000
vt 0.375000 0.000000
vt 0.625000 0.500000
vt 0.375000 0.500000
vt 0.625000 0.750000
vt 0.375000 0.750000
vt 0.375000 1.000000
vt 0.875000 0.500000
vt 0.125000 0.500000
vt 0.125000 0.750000
vt 0.625000 0.250000
vt 0.625000 1.000000
vt 0.875000 0.750000
s 0
usemtl Material.002
f 30/19/27 31/20/27 29/21/27
f 31/20/28 36/22/28 35/23/28
f 35/23/29 34/24/29 33/25/29
f 34/24/30 29/26/30 33/25/30
f 35/23/31 39/25/31 40/23/31
f 32/27/32 34/24/32 36/22/32
f 38/28/33 39/25/33 37/29/33
f 33/25/34 37/26/34 39/25/34
f 35/23/35 38/20/35 31/20/35
f 31/20/36 37/21/36 29/21/36
f 43/20/37 42/19/37 41/21/37
f 43/20/38 48/22/38 44/30/38
f 47/23/39 46/24/39 48/22/39
f 41/26/40 46/24/40 45/25/40
f 47/23/41 51/25/41 45/25/41
f 46/24/42 44/27/42 48/22/42
f 50/28/43 51/25/43 52/23/43
f 45/25/44 49/26/44 41/26/44
f 50/20/45 47/23/45 43/20/45
f 49/21/46 43/20/46 41/21/46
f 30/19/47 32/30/47 31/20/47
f 31/20/48 32/30/48 36/22/48
f 35/23/49 36/22/49 34/24/49
f 34/24/50 30/31/50 29/26/50
f 35/23/51 33/25/51 39/25/51
f 32/27/32 30/32/32 34/24/32
f 38/28/33 40/23/33 39/25/33
f 33/25/52 29/26/52 37/26/52
f 35/23/53 40/23/53 38/20/53
f 31/20/54 38/20/54 37/21/54
f 43/20/55 44/30/55 42/19/55
f 43/20/56 47/23/56 48/22/56
f 47/23/57 45/25/57 46/24/57
f 41/26/58 42/31/58 46/24/58
f 47/23/59 52/23/59 51/25/59
f 46/24/42 42/32/42 44/27/42
f 50/28/43 49/29/43 51/25/43
f 45/25/60 51/25/60 49/26/60
f 50/20/61 52/23/61 47/23/61
f 49/21/62 50/20/62 43/20/62
